<svg width="100" height="38" viewBox="0 0 100 38" fill="none" xmlns="http://www.w3.org/2000/svg">
<path fill-rule="evenodd" clip-rule="evenodd" d="M60.835 26.714C55.604 30.524 48.026 32.612 41.496 32.612C32.348 32.612 24.107 29.254 17.876 23.537C17.386 23.084 17.822 22.539 18.411 22.902C25.138 26.804 33.456 29.164 42.049 29.164C47.845 29.164 54.215 27.984 60.079 25.444C60.959 25.08 61.699 26.078 60.835 26.714Z" fill="#FF9900"/>
<path fill-rule="evenodd" clip-rule="evenodd" d="M63.012 24.1729C62.342 23.3559 58.591 23.8099 56.904 23.9909C56.394 24.0809 56.314 23.6279 56.773 23.2649C59.766 21.1779 64.673 21.8129 65.242 22.4479C65.815 23.1739 65.091 28.1659 62.285 30.5249C61.853 30.8879 61.445 30.6149 61.635 30.1619C62.268 28.6189 63.681 25.0809 63.012 24.1729Z" fill="#FF9900"/>
<path fill-rule="evenodd" clip-rule="evenodd" d="M57.02 8.38294V6.29494C57.024 6.02294 57.255 5.75094 57.54 5.75094H66.695C66.985 5.75094 67.224 6.02294 67.224 6.29494V8.10994C67.22 8.38294 66.972 8.74594 66.534 9.37994L61.792 16.1879C63.554 16.0979 65.415 16.3689 67.015 17.2769C67.377 17.4579 67.475 17.8209 67.501 18.0939V20.2719C67.501 20.5439 67.173 20.9069 66.828 20.7249C64.009 19.2729 60.272 19.0919 57.155 20.7249C56.836 20.9069 56.501 20.5439 56.501 20.2719V18.1839C56.501 17.8209 56.508 17.2769 56.843 16.8239L62.338 8.83694H57.553C57.258 8.83694 57.023 8.65594 57.02 8.38394V8.38294ZM75.13 8.47294C73.077 8.47294 72.946 11.2869 72.946 13.0109C72.946 14.7349 72.92 18.5459 75.106 18.5459C77.266 18.5459 77.366 15.4609 77.366 13.6459C77.366 12.4659 77.313 11.0139 76.952 9.83494C76.64 8.83594 76.014 8.47294 75.13 8.47294ZM75.106 5.56894C79.242 5.56894 81.476 9.10894 81.476 13.6459C81.476 18.0019 79.007 21.4499 75.106 21.4499C71.051 21.4499 68.838 17.9109 68.838 13.4639C68.838 9.01794 71.075 5.56894 75.106 5.56894ZM52.534 21.1779C52.349 21.2679 52.014 21.2679 51.874 21.1779C50.923 20.4519 50.276 19.3629 50.276 19.3629C48.746 20.9059 47.665 21.3589 45.686 21.3589C43.341 21.3589 41.516 19.9079 41.516 17.0039C41.516 14.7339 42.742 13.1919 44.486 12.4659C45.996 11.7399 48.11 11.6499 49.724 11.4679C49.724 11.4679 49.857 9.74394 49.385 9.10794C49.021 8.56394 48.395 8.38294 47.822 8.38294C46.787 8.38294 45.789 8.92694 45.592 10.0159C45.535 10.2879 45.307 10.5609 45.065 10.5609L42.397 10.2879C42.193 10.1979 41.915 10.0159 41.982 9.65294C42.605 6.38594 45.562 5.38794 48.214 5.38794C49.57 5.38794 51.341 5.75094 52.409 6.74894C53.765 8.01894 53.635 9.74394 53.635 11.5589V15.9149C53.635 17.2749 54.177 17.8199 54.686 18.5459C54.864 18.8189 54.904 19.0909 54.676 19.2719C54.107 19.7259 52.534 21.1779 52.534 21.1779ZM49.724 14.2809C49.724 15.3709 49.751 16.2779 49.204 17.2759C48.763 18.0929 48.059 18.5459 47.276 18.5459C46.207 18.5459 45.582 17.7299 45.582 16.5499C45.582 14.0999 47.711 13.7369 49.724 13.7369V14.2809ZM16.017 21.1779C15.833 21.2679 15.494 21.2679 15.361 21.1779C14.41 20.4519 13.763 19.3629 13.763 19.3629C12.233 20.9059 11.151 21.3589 9.173 21.3589C6.824 21.3589 5 19.9079 5 17.0039C5 14.7339 6.226 13.1919 7.97 12.4659C9.48 11.7399 11.593 11.6499 13.207 11.4679C13.207 11.4679 13.341 9.74394 12.869 9.10794C12.501 8.56394 11.878 8.38294 11.305 8.38294C10.271 8.38294 9.273 8.92694 9.075 10.0159C9.018 10.2879 8.791 10.5609 8.55 10.5609L5.88 10.2879C5.676 10.1979 5.398 10.0159 5.465 9.65294C6.088 6.38594 9.045 5.38794 11.697 5.38794C13.053 5.38794 14.825 5.75094 15.893 6.74894C17.249 8.01894 17.119 9.74394 17.119 11.5589V15.9149C17.119 17.2749 17.661 17.8199 18.17 18.5459C18.347 18.8189 18.388 19.0909 18.16 19.2719C17.59 19.7259 16.017 21.1779 16.017 21.1779ZM13.207 14.2809C13.207 15.3709 13.234 16.2779 12.685 17.2759C12.243 18.0929 11.54 18.5459 10.756 18.5459C9.688 18.5459 9.062 17.7299 9.062 16.5499C9.062 14.0999 11.192 13.7369 13.204 13.7369V14.2809H13.207ZM24.16 13.0109C24.16 11.3769 24.084 9.10894 26.086 9.10894C28.062 9.10894 27.801 11.4689 27.801 13.0109L27.804 20.6339C27.804 20.9059 28.024 21.1779 28.303 21.1779H31.085C31.384 21.1779 31.621 20.9059 31.621 20.6339V13.0109C31.621 12.1939 31.595 11.0139 31.883 10.2879C32.17 9.56194 32.87 9.10794 33.546 9.10794C34.354 9.10794 34.976 9.38094 35.185 10.3789C35.315 10.9239 35.261 12.4659 35.261 13.0109V20.6339C35.261 20.9059 35.481 21.1779 35.76 21.1779H38.543C38.841 21.1779 39.078 20.9059 39.078 20.6339L39.082 11.5589C39.082 10.0159 39.262 8.29194 38.379 7.11194C37.6 6.02294 36.326 5.47894 35.154 5.47894C33.516 5.47894 31.983 6.38594 31.306 8.20094C30.526 6.38594 29.435 5.47894 27.694 5.47894C25.979 5.47894 24.703 6.38594 24.026 8.20094H23.973V6.38594C23.973 6.02294 23.738 5.84194 23.453 5.84194H20.856C20.568 5.84194 20.336 6.02294 20.336 6.38594V20.6339C20.336 20.9059 20.571 21.1779 20.856 21.1779H23.638C23.926 21.1779 24.158 20.9059 24.158 20.6339L24.16 13.0109ZM87.382 20.6339C87.382 20.9059 87.147 21.1779 86.862 21.1779H84.08C83.792 21.1779 83.56 20.9059 83.56 20.6339V6.38594C83.56 6.02294 83.795 5.84194 84.08 5.84194H86.652C86.952 5.84194 87.171 6.11394 87.171 6.20494V8.38294H87.225C88.005 6.47694 89.096 5.56794 91.022 5.56794C92.271 5.56794 93.492 6.02194 94.272 7.20194C95 8.38294 95 10.2879 95 11.6499V20.7239C94.97 20.9959 94.742 21.1779 94.467 21.1779H91.675C91.416 21.1779 91.209 20.9959 91.179 20.7239L91.183 12.0129C91.183 9.10894 90.073 9.10894 89.435 9.10894C88.691 9.10894 88.092 9.65294 87.83 10.1979C87.442 11.1049 87.378 11.9219 87.378 12.9199L87.382 20.6339Z" fill="white"/>
</svg>
