<svg width="24" height="24" viewBox="0 0 24 24" fill="none" xmlns="http://www.w3.org/2000/svg">
<path d="M12 12C12.55 12 13.021 11.804 13.413 11.412C13.8043 11.0207 14 10.55 14 10C14 9.45 13.8043 8.979 13.413 8.587C13.021 8.19567 12.55 8 12 8C11.45 8 10.9793 8.19567 10.588 8.587C10.196 8.979 10 9.45 10 10C10 10.55 10.196 11.0207 10.588 11.412C10.9793 11.804 11.45 12 12 12ZM12 22C9.31667 19.7167 7.31267 17.5957 5.988 15.637C4.66267 13.679 4 11.8667 4 10.2C4 7.7 4.80433 5.70833 6.413 4.225C8.021 2.74167 9.88333 2 12 2C14.1167 2 15.979 2.74167 17.587 4.225C19.1957 5.70833 20 7.7 20 10.2C20 11.8667 19.3377 13.679 18.013 15.637C16.6877 17.5957 14.6833 19.7167 12 22Z" fill="#10141A"/>
</svg>
