<svg width="20" height="14" viewBox="0 0 21 15" fill="none" xmlns="http://www.w3.org/2000/svg">
<path d="M20.4125 2.66156C20.3071 2.53268 20.1744 2.42888 20.0239 2.35769C19.8734 2.2865 19.709 2.24971 19.5425 2.25H5.27609L4.98875 0.619688C4.95811 0.446029 4.86726 0.28872 4.73216 0.175391C4.59706 0.0620626 4.42634 -3.70507e-05 4.25 1.65845e-08H1.25C1.05109 1.65845e-08 0.860322 0.0790178 0.71967 0.21967C0.579018 0.360322 0.5 0.551088 0.5 0.75C0.5 0.948912 0.579018 1.13968 0.71967 1.28033C0.860322 1.42098 1.05109 1.5 1.25 1.5H3.62094L5.76125 13.6303C5.79189 13.804 5.88274 13.9613 6.01784 14.0746C6.15294 14.1879 6.32366 14.25 6.5 14.25H18.5C18.6989 14.25 18.8897 14.171 19.0303 14.0303C19.171 13.8897 19.25 13.6989 19.25 13.5C19.25 13.3011 19.171 13.1103 19.0303 12.9697C18.8897 12.829 18.6989 12.75 18.5 12.75H7.12906L6.86469 11.25H18.1925C18.4526 11.2497 18.7046 11.1595 18.9058 10.9947C19.1071 10.8299 19.2452 10.6007 19.2969 10.3458L20.6469 3.59578C20.6794 3.43242 20.6753 3.26388 20.6347 3.10232C20.5942 2.94076 20.5183 2.79022 20.4125 2.66156Z" fill="#ffffff"/>
</svg>
