<svg width="90" height="28" viewBox="0 0 90 28" fill="none" xmlns="http://www.w3.org/2000/svg">
<path fill-rule="evenodd" clip-rule="evenodd" d="M55.8351 21.326C50.6041 25.136 43.0261 27.224 36.496 27.224C27.3481 27.224 19.1071 23.866 12.8761 18.149C12.3861 17.696 12.8221 17.151 13.4111 17.514C20.1381 21.416 28.4561 23.776 37.0491 23.776C42.8451 23.776 49.2151 22.596 55.0791 20.056C55.9591 19.692 56.6991 20.69 55.8351 21.326Z" fill="#FF9900"/>
<path fill-rule="evenodd" clip-rule="evenodd" d="M58.012 18.7849C57.342 17.9679 53.591 18.4219 51.904 18.6029C51.394 18.6929 51.314 18.2399 51.773 17.8769C54.766 15.7899 59.673 16.4249 60.242 17.0599C60.815 17.7859 60.091 22.7779 57.285 25.1369C56.853 25.4999 56.445 25.2269 56.635 24.7739C57.268 23.2309 58.681 19.6929 58.012 18.7849Z" fill="#FF9900"/>
<path fill-rule="evenodd" clip-rule="evenodd" d="M52.02 2.995V0.907C52.024 0.635 52.255 0.363 52.54 0.363H61.695C61.985 0.363 62.224 0.635 62.224 0.907V2.722C62.22 2.995 61.972 3.358 61.534 3.992L56.792 10.8C58.554 10.71 60.415 10.981 62.015 11.889C62.377 12.07 62.475 12.433 62.501 12.706V14.884C62.501 15.156 62.173 15.519 61.828 15.337C59.009 13.885 55.272 13.704 52.155 15.337C51.836 15.519 51.501 15.156 51.501 14.884V12.796C51.501 12.433 51.508 11.889 51.843 11.436L57.338 3.449H52.553C52.258 3.449 52.023 3.268 52.02 2.996V2.995ZM70.13 3.085C68.077 3.085 67.946 5.899 67.946 7.623C67.946 9.347 67.92 13.158 70.106 13.158C72.266 13.158 72.366 10.073 72.366 8.258C72.366 7.078 72.313 5.626 71.952 4.447C71.64 3.448 71.014 3.085 70.13 3.085ZM70.106 0.181C74.242 0.181 76.476 3.721 76.476 8.258C76.476 12.614 74.007 16.062 70.106 16.062C66.051 16.062 63.838 12.523 63.838 8.076C63.838 3.63 66.075 0.181 70.106 0.181ZM47.534 15.79C47.349 15.88 47.014 15.88 46.874 15.79C45.923 15.064 45.276 13.975 45.276 13.975C43.746 15.518 42.665 15.971 40.686 15.971C38.341 15.971 36.516 14.52 36.516 11.616C36.516 9.346 37.742 7.804 39.486 7.078C40.996 6.352 43.11 6.262 44.724 6.08C44.724 6.08 44.857 4.356 44.385 3.72C44.021 3.176 43.395 2.995 42.822 2.995C41.787 2.995 40.789 3.539 40.592 4.628C40.535 4.9 40.307 5.173 40.065 5.173L37.397 4.9C37.193 4.81 36.915 4.628 36.982 4.265C37.605 0.998 40.562 0 43.214 0C44.57 0 46.341 0.363 47.409 1.361C48.765 2.631 48.635 4.356 48.635 6.171V10.527C48.635 11.887 49.177 12.432 49.686 13.158C49.864 13.431 49.904 13.703 49.676 13.884C49.107 14.338 47.534 15.79 47.534 15.79ZM44.724 8.893C44.724 9.983 44.751 10.89 44.204 11.888C43.763 12.705 43.059 13.158 42.276 13.158C41.207 13.158 40.582 12.342 40.582 11.162C40.582 8.712 42.711 8.349 44.724 8.349V8.893ZM11.017 15.79C10.833 15.88 10.494 15.88 10.361 15.79C9.41 15.064 8.763 13.975 8.763 13.975C7.233 15.518 6.151 15.971 4.173 15.971C1.824 15.971 0 14.52 0 11.616C0 9.346 1.226 7.804 2.97 7.078C4.48 6.352 6.593 6.262 8.207 6.08C8.207 6.08 8.341 4.356 7.869 3.72C7.501 3.176 6.878 2.995 6.305 2.995C5.271 2.995 4.273 3.539 4.075 4.628C4.018 4.9 3.791 5.173 3.55 5.173L0.88 4.9C0.676 4.81 0.398 4.628 0.465 4.265C1.088 0.998 4.045 0 6.697 0C8.053 0 9.825 0.363 10.893 1.361C12.249 2.631 12.119 4.356 12.119 6.171V10.527C12.119 11.887 12.661 12.432 13.17 13.158C13.347 13.431 13.388 13.703 13.16 13.884C12.59 14.338 11.017 15.79 11.017 15.79ZM8.207 8.893C8.207 9.983 8.234 10.89 7.685 11.888C7.243 12.705 6.54 13.158 5.756 13.158C4.688 13.158 4.062 12.342 4.062 11.162C4.062 8.712 6.192 8.349 8.204 8.349V8.893H8.207ZM19.16 7.623C19.16 5.989 19.084 3.721 21.086 3.721C23.062 3.721 22.801 6.081 22.801 7.623L22.804 15.246C22.804 15.518 23.024 15.79 23.303 15.79H26.085C26.384 15.79 26.621 15.518 26.621 15.246V7.623C26.621 6.806 26.595 5.626 26.883 4.9C27.17 4.174 27.87 3.72 28.546 3.72C29.354 3.72 29.976 3.993 30.185 4.991C30.315 5.536 30.261 7.078 30.261 7.623V15.246C30.261 15.518 30.481 15.79 30.76 15.79H33.543C33.841 15.79 34.078 15.518 34.078 15.246L34.082 6.171C34.082 4.628 34.262 2.904 33.379 1.724C32.6 0.635 31.326 0.091 30.154 0.091C28.516 0.091 26.983 0.998 26.306 2.813C25.526 0.998 24.435 0.091 22.694 0.091C20.979 0.091 19.703 0.998 19.026 2.813H18.973V0.998C18.973 0.635 18.738 0.454 18.453 0.454H15.856C15.568 0.454 15.336 0.635 15.336 0.998V15.246C15.336 15.518 15.571 15.79 15.856 15.79H18.638C18.926 15.79 19.158 15.518 19.158 15.246L19.16 7.623ZM82.382 15.246C82.382 15.518 82.147 15.79 81.862 15.79H79.08C78.792 15.79 78.56 15.518 78.56 15.246V0.998C78.56 0.635 78.795 0.454 79.08 0.454H81.652C81.952 0.454 82.171 0.726 82.171 0.817V2.995H82.225C83.005 1.089 84.096 0.18 86.022 0.18C87.271 0.18 88.492 0.634 89.272 1.814C90 2.995 90 4.9 90 6.262V15.336C89.97 15.608 89.742 15.79 89.467 15.79H86.675C86.416 15.79 86.209 15.608 86.179 15.336L86.183 6.625C86.183 3.721 85.073 3.721 84.435 3.721C83.691 3.721 83.092 4.265 82.83 4.81C82.442 5.717 82.378 6.534 82.378 7.532L82.382 15.246Z" fill="white"/>
</svg>
