<svg width="1280" height="32" viewBox="0 0 1280 32" fill="none" xmlns="http://www.w3.org/2000/svg">
<rect width="1280" height="32" fill="#1B232F"/>
<path d="M26 20H38V18.6667H26V20ZM26 16.6667H38V15.3333H26V16.6667ZM26 12V13.3333H38V12H26Z" fill="white"/>
<path d="M54.9561 19.4131H50.5127V17.166H53.8135V11.3896H45.3965V17.166H48.71V19.4131H44.3047V20.8984H54.9561V19.4131ZM47.1992 15.7441V12.8496H51.998V15.7441H47.1992ZM64.18 14.6523H57.9466V12.6084H64.0784V11.1611H56.0677V16.0742H64.18V14.6523ZM54.7473 18.5752H59.1272V22.2061H60.9427V18.5752H65.3987V17.1279H54.7473V18.5752Z" fill="white"/>
<path d="M87.5986 11.3008C85.1548 11.3071 83.3394 12.5322 83.3457 14.3984C83.3394 16.1187 84.8184 17.2676 86.9004 17.4771V19.5781H82.3809V20.7334H92.8672V19.5781H88.2969V17.4771C90.4043 17.2676 91.8833 16.1187 91.877 14.3984C91.8833 12.5322 90.0615 11.3071 87.5986 11.3008ZM84.7295 14.3984C84.7231 13.1987 85.9229 12.437 87.5986 12.4434C89.2998 12.437 90.4932 13.1987 90.4932 14.3984C90.4932 15.6362 89.2998 16.3789 87.5986 16.3789C85.9229 16.3789 84.7231 15.6362 84.7295 14.3984ZM102.884 13.1289H96.3457V10.8057H94.9619V14.2588H102.884V13.1289ZM93.6035 16.2646H104.09V15.1348H93.6035V16.2646ZM94.8477 18.1562H101.411V18.9688H94.8604V21.9902H103.188V20.8857H96.2822V19.9971H102.808V17.0645H94.8477V18.1562ZM108.571 11.4531C106.769 11.4468 105.417 12.5957 105.423 14.2207C105.417 15.8521 106.769 16.9946 108.571 17.001C110.393 16.9946 111.72 15.8521 111.732 14.2207C111.72 12.5957 110.393 11.4468 108.571 11.4531ZM104.902 18.5879L105.08 19.7432C107.105 19.7432 109.86 19.7241 112.431 19.2354L112.316 18.207C109.834 18.5625 106.972 18.5879 104.902 18.5879ZM106.819 14.2207C106.813 13.2686 107.568 12.6719 108.571 12.6719C109.593 12.6719 110.342 13.2686 110.349 14.2207C110.342 15.1792 109.587 15.7695 108.571 15.7695C107.568 15.7695 106.813 15.1792 106.819 14.2207ZM113.002 22.1426H114.411V10.6533H113.002V22.1426ZM128.706 10.6533H127.31V16.4424H128.706V10.6533ZM119.845 15.998H120.822C123.38 16.0044 124.815 15.9155 126.434 15.5791L126.269 14.4873C124.802 14.7856 123.488 14.8682 121.267 14.8809V12.418H125.304V11.2881H119.845V15.998ZM121.114 18.042H127.335V18.9307H121.127V22.0537H129.049V20.9492H122.523V19.959H128.706V16.9375H121.114V18.042Z" fill="white"/>
<path d="M156.75 11.707H148.473V12.8369H155.328C155.322 14.2144 155.322 15.8457 154.871 18.0801L156.293 18.2324C156.737 15.833 156.737 14.2397 156.75 12.8115V11.707ZM147.381 20.6445H157.842V19.4893H152.637V15.5029H151.24V19.4893H147.381V20.6445ZM168.43 10.666H167.084V13.3828H165.878V10.8818H164.545V17.3438H165.878V14.5381H167.084V17.3945H168.43V10.666ZM158.553 16.4424L159.226 17.4961C162.19 16.29 163.625 14.3096 163.618 11.4658H159.073V12.6084H162.184C161.955 14.2842 160.793 15.5854 158.553 16.4424ZM160.521 19.0068H167.021V22.1299H168.43V17.8643H160.521V19.0068ZM177.177 13.4082V11.5801H175.742V13.4082C175.736 15.5537 174.695 17.7627 172.822 18.6387L173.711 19.7812C175.031 19.1147 175.971 17.7944 176.472 16.2075C176.961 17.7119 177.875 18.9307 179.17 19.5654L180.021 18.4355C178.192 17.6357 177.17 15.541 177.177 13.4082ZM178.751 15.5029H181.163V22.1426H182.56V10.6533H181.163V14.3604H178.751V15.5029ZM193.719 10.6533H192.297V22.1426H193.719V10.6533ZM184.781 19.4385H190.367V11.5928H188.971V14.4619H186.19V11.5928H184.781V19.4385ZM186.19 18.2832V15.5664H188.971V18.2832H186.19ZM201.336 12.2275V11.377H199.838V12.2275C199.832 13.9922 198.092 15.7695 195.725 16.2012L196.347 17.3818C198.264 16.9756 199.838 15.8013 200.593 14.2715C201.342 15.814 202.917 16.9819 204.84 17.3818L205.475 16.2012C203.069 15.7822 201.336 13.9985 201.336 12.2275ZM195.407 20.6699H205.894V19.502H195.407V20.6699Z" fill="white"/>
<path d="M227.799 11.8467H223.711V12.9766H226.44V14.9443H223.724V19.3877H224.523C225.964 19.3813 227.259 19.356 228.802 19.0703L228.688 17.915C227.386 18.1499 226.263 18.2007 225.082 18.2134V16.0615H227.799V11.8467ZM228.307 15.7949H229.563V21.5459H230.896V10.8945H229.563V14.6396H228.307V15.7949ZM231.912 22.1299H233.258V10.6533H231.912V22.1299ZM238.945 13.916V12.9512H241.459V11.7832H234.984V12.9512H237.511V13.916C237.504 15.8647 236.375 18.0039 234.565 18.8418L235.378 19.9463C236.717 19.3115 237.727 17.9912 238.253 16.417C238.78 17.877 239.771 19.0767 241.129 19.667L241.903 18.5498C240.05 17.7754 238.945 15.7949 238.945 13.916ZM242.741 22.1299H244.163V10.6533H242.741V22.1299ZM251.78 12.2275V11.377H250.282V12.2275C250.276 13.9922 248.537 15.7695 246.169 16.2012L246.791 17.3818C248.708 16.9756 250.282 15.8013 251.038 14.2715C251.787 15.814 253.361 16.9819 255.284 17.3818L255.919 16.2012C253.513 15.7822 251.78 13.9985 251.78 12.2275ZM245.852 20.6699H256.338V19.502H245.852V20.6699ZM266.418 16.6709H259.804V15.1855H266.05V14.0811H259.804V12.6973H266.316V11.5547H258.369V17.7881H266.418V16.6709ZM257.087 20.7334H267.573V19.5781H257.087V20.7334ZM277.882 10.6533H276.485V22.1426H277.882V10.6533ZM268.944 12.7988H272.918V14.8428H268.957V19.4258H269.96C272.023 19.4321 273.737 19.356 275.686 19.0195L275.559 17.8643C273.769 18.1626 272.213 18.2578 270.404 18.2705V15.96H274.353V11.6562H268.944V12.7988Z" fill="white"/>
<path d="M305.966 10.6533H304.544V22.1299H305.966V10.6533ZM296.457 18.9688L297.193 20.0986C301.211 18.188 302.538 15.2871 302.538 11.8721H297.041V12.9893H301.104C300.85 15.5981 299.466 17.5405 296.457 18.9688ZM318.103 19.5654H307.616V20.7461H318.103V19.5654ZM308.479 12.8496H310.13V16.5059H308.518V17.623H317.15V16.5059H315.513V12.8496H317.188V11.7197H308.479V12.8496ZM311.539 16.5059V12.8496H314.116V16.5059H311.539ZM328.183 16.6709H321.568V15.1855H327.814V14.0811H321.568V12.6973H328.081V11.5547H320.134V17.7881H328.183V16.6709ZM318.852 20.7334H329.338V19.5781H318.852V20.7334ZM339.139 11.7832H333.87V12.9258H337.736C337.691 13.5288 337.596 14.0938 337.45 14.6333L333.273 14.8936L333.451 16.1123L337.025 15.7759C336.358 17.1343 335.171 18.2832 333.185 19.2607L333.959 20.3271C338.187 18.2261 339.132 15.249 339.139 11.7832ZM340.751 22.1045H342.16V16.3027H343.861V15.1475H342.16V10.6533H340.751V22.1045ZM353.726 16.0361H347.073V12.7988H353.637V11.6562H345.677V17.166H353.726V16.0361ZM344.407 20.6699H354.894V19.502H344.407V20.6699Z" fill="white"/>
<path d="M378.843 11.6562H372.66V12.7861H373.676V16.3535C373.212 16.3599 372.768 16.3662 372.355 16.3662L372.508 17.5088C374.45 17.5088 377.091 17.4644 379.401 17.0771L379.3 16.0361C378.83 16.0933 378.341 16.1377 377.84 16.1821V12.7861H378.843V11.6562ZM374.082 21.9014H381.89V20.7588H375.491V18.3086H374.082V21.9014ZM375.034 16.3218V12.7861H376.469V16.2646C375.986 16.29 375.504 16.3091 375.034 16.3218ZM380.023 19.1084H381.433V15.1602H383.032V13.9795H381.433V10.666H380.023V19.1084ZM393.519 10.6533H392.16V15.084H390.941V10.8564H389.608V21.5713H390.941V16.252H392.16V22.1299H393.519V10.6533ZM383.972 19.1719H388.479V11.8975H383.972V19.1719ZM385.292 18.0547V13.0146H387.158V18.0547H385.292Z" fill="white"/>
<path d="M1156.93 13.6113V13.1543H1159.26V11.6689H1152.67V13.1543H1155.06V13.6113C1155.06 15.5728 1154.21 17.7119 1152.19 18.6006L1153.23 20.0352C1154.6 19.4258 1155.51 18.2197 1156.02 16.7534C1156.54 18.0864 1157.43 19.1782 1158.79 19.7432L1159.77 18.3086C1157.74 17.4834 1156.93 15.4648 1156.93 13.6113ZM1160.25 22.2188H1162.09V10.5645H1160.25V22.2188ZM1172.19 11.0723H1164.04V12.5195H1170.36C1170.36 13.2939 1170.31 14.1445 1170.09 15.2109H1162.76V16.6709H1173.41V15.2109H1171.93C1172.2 13.9097 1172.2 12.9258 1172.19 12.0244V11.0723ZM1164 22.0918H1172.12V17.8008H1164V22.0918ZM1165.79 20.6318V19.2227H1170.3V20.6318H1165.79ZM1185.97 16.5947H1175.32V18.0166H1185.97V16.5947ZM1176.52 20.0986H1182.83V22.2188H1184.67V18.6641H1176.52V20.0986ZM1176.62 15.9727H1184.86V14.6016H1178.44V14.0557H1184.5V12.7227H1178.44V12.2148H1184.75V10.8184H1176.62V15.9727ZM1195.04 10.5645H1193.21V22.1807H1195.04V16.4424H1196.6V14.9443H1195.04V10.5645ZM1185.61 18.8418L1186.64 20.2383C1190.59 18.2959 1191.89 15.2808 1191.89 11.7324H1186.31V13.2305H1190.03C1189.71 15.7632 1188.28 17.4961 1185.61 18.8418ZM1202.74 12.3926V11.1992H1200.89V12.2021C1200.89 13.7446 1200.17 15.2935 1198.16 15.9473L1199.15 17.3691C1200.46 16.9375 1201.33 16.0679 1201.83 14.9634C1202.32 15.9155 1203.15 16.6582 1204.36 17.0391L1205.32 15.6299C1203.43 15.0649 1202.74 13.7446 1202.74 12.3926ZM1199.79 19.9209C1199.78 21.3809 1201.34 22.2314 1203.81 22.2188C1206.24 22.2314 1207.78 21.3809 1207.78 19.9209C1207.78 18.4863 1206.24 17.6294 1203.81 17.6357C1201.34 17.6294 1199.78 18.4863 1199.79 19.9209ZM1201.62 19.9209C1201.61 19.3496 1202.37 19.0513 1203.81 19.0576C1205.25 19.0513 1205.97 19.3496 1205.97 19.9209C1205.97 20.5366 1205.25 20.7905 1203.81 20.7969C1202.37 20.7905 1201.61 20.5366 1201.62 19.9209ZM1205.83 17.4199H1207.66V14.7031H1209.17V13.1924H1207.66V10.5645H1205.83V17.4199ZM1219.46 15.9727H1208.84V17.4072H1213.22V18.2832H1210.05V22.0918H1218.19V18.2832H1215.04V17.4072H1219.46V15.9727ZM1209.75 12.3291H1211.17V13.8779H1209.84V15.3379H1218.43V13.8779H1217.1V12.3291H1218.52V10.8691H1209.75V12.3291ZM1211.84 20.6318V19.6797H1216.42V20.6318H1211.84ZM1213 13.8779V12.3291H1215.26V13.8779H1213ZM1225.79 17.1533H1223.97V19.4385H1221.42V20.8984H1232.07V19.4385H1229.49V17.1533H1227.68V19.4385H1225.79V17.1533ZM1221.62 15.5918L1222.36 17.1025C1224.45 16.7598 1225.9 15.7378 1226.67 14.4048C1227.42 15.7378 1228.88 16.7471 1231 17.1025L1231.73 15.5918C1228.88 15.1729 1227.65 13.478 1227.65 11.999V11.1738H1225.7V11.999C1225.68 13.4526 1224.45 15.1602 1221.62 15.5918ZM1238.72 11.415H1232.37V12.875H1233.23V15.6997C1232.82 15.7061 1232.43 15.7061 1232.06 15.7061L1232.25 17.1787C1234.18 17.1724 1236.88 17.1216 1239.24 16.6836L1239.12 15.3506C1238.7 15.4077 1238.26 15.4521 1237.82 15.4902V12.875H1238.72V11.415ZM1233.66 19.9844C1233.66 21.4062 1235.19 22.2314 1237.69 22.2188C1240.2 22.2314 1241.73 21.4062 1241.74 19.9844C1241.73 18.5688 1240.2 17.769 1237.69 17.7754C1235.19 17.769 1233.66 18.5688 1233.66 19.9844ZM1234.98 15.6616V12.875H1236.06V15.6172C1235.7 15.6362 1235.34 15.6489 1234.98 15.6616ZM1235.48 19.9844C1235.47 19.4131 1236.21 19.1528 1237.69 19.1592C1239.17 19.1528 1239.9 19.4131 1239.91 19.9844C1239.9 20.5684 1239.17 20.8413 1237.69 20.8477C1236.21 20.8413 1235.47 20.5684 1235.48 19.9844ZM1239.83 17.5596H1241.66V10.5771H1239.83V17.5596ZM1251.57 10.5645H1249.77V22.2188H1251.57V16.5566H1253.22V15.0459H1251.57V10.5645ZM1242.27 13.7129H1249.08V12.2656H1246.62V10.7549H1244.79V12.2656H1242.27V13.7129ZM1242.68 17.0771C1242.67 18.7212 1243.96 19.8828 1245.71 19.8828C1247.41 19.8828 1248.71 18.7212 1248.71 17.0771C1248.71 15.4331 1247.41 14.2651 1245.71 14.2715C1243.96 14.2651 1242.67 15.4331 1242.68 17.0771ZM1244.44 17.0771C1244.42 16.2393 1244.96 15.7505 1245.71 15.7441C1246.43 15.7505 1246.96 16.2393 1246.96 17.0771C1246.96 17.9341 1246.43 18.4038 1245.71 18.3975C1244.96 18.4038 1244.42 17.9341 1244.44 17.0771ZM1262.62 10.5645H1260.77V22.2188H1262.62V10.5645ZM1252.78 18.8291L1253.74 20.2764C1257.98 18.2896 1259.11 15.3633 1259.12 11.7705H1253.44V13.1924H1257.25C1256.99 15.7061 1255.75 17.4326 1252.78 18.8291Z" fill="white"/>
</svg>
