<svg width="50" height="32" viewBox="0 0 160 32" fill="none" xmlns="http://www.w3.org/2000/svg">
<rect x="0.5" y="0.5" width="159" height="31" rx="3.5" fill="url(#paint0_linear_35_11423)"/>
<path d="M60.2355 19.5H63.3829C65.1607 19.5 66.0362 18.5923 66.0362 17.3838C66.0362 16.2021 65.1983 15.5146 64.3712 15.4717V15.3965C65.1339 15.2139 65.7301 14.6875 65.7355 13.7422C65.7301 12.582 64.8976 11.7227 63.211 11.7227H60.2355V19.5ZM61.6319 18.3291V16.041H63.2003C64.0704 16.0464 64.6129 16.5781 64.6183 17.2764C64.6129 17.894 64.1886 18.3291 63.1681 18.3291H61.6319ZM61.6319 15.0312V12.8828H63.0714C63.9039 12.8828 64.3336 13.3179 64.339 13.9141C64.3336 14.6069 63.775 15.0312 63.0392 15.0312H61.6319ZM71.4241 11.7227V16.6855C71.4241 17.6685 70.7473 18.3667 69.6731 18.3721C68.5989 18.3667 67.9168 17.6685 67.9114 16.6855V11.7227H66.5149V16.8037C66.5203 18.4741 67.7664 19.6182 69.6731 19.6182C71.5691 19.6182 72.8259 18.4741 72.8313 16.8037V11.7227H71.4241ZM73.267 12.8936H75.6733V19.5H77.0697V12.8936H79.4653V11.7227H73.267V12.8936ZM79.5572 12.8936H81.9635V19.5H83.3599V12.8936H85.7554V11.7227H79.5572V12.8936ZM92.7869 15.6113C92.7922 13.0977 91.2561 11.6152 89.2205 11.6152C87.1741 11.6152 85.6487 13.0977 85.654 15.6113C85.6487 18.1196 87.1741 19.6074 89.2205 19.6074C91.2561 19.6074 92.7922 18.125 92.7869 15.6113ZM87.0613 15.6113C87.0559 13.8335 87.9529 12.8721 89.2205 12.8721C90.4934 12.8721 91.385 13.8335 91.3796 15.6113C91.385 17.3892 90.4934 18.3506 89.2205 18.3506C87.9529 18.3506 87.0559 17.3892 87.0613 15.6113ZM99.7646 11.7227H98.3788V17.04H98.3036L94.6405 11.7227H93.373V19.5H94.7694V14.1826H94.8339L98.5185 19.5H99.7646V11.7227Z" fill="#10141A"/>
<rect x="0.5" y="0.5" width="159" height="31" rx="3.5" stroke="#DE9408"/>
<defs>
<linearGradient id="paint0_linear_35_11423" x1="80" y1="9.00709e-08" x2="80.6044" y2="31.9975" gradientUnits="userSpaceOnUse">
<stop stop-color="white"/>
<stop offset="0.5" stop-color="#FED15F"/>
<stop offset="1" stop-color="#FEBE30"/>
</linearGradient>
</defs>
</svg>
