<svg width="100" height="40" viewBox="0 0 100 40" fill="none" xmlns="http://www.w3.org/2000/svg">
<path fill-rule="evenodd" clip-rule="evenodd" d="M60.8351 29.326C55.6041 33.136 48.0261 35.224 41.496 35.224C32.3481 35.224 24.1071 31.866 17.8761 26.149C17.3861 25.696 17.8221 25.151 18.4111 25.514C25.1381 29.416 33.4561 31.776 42.0491 31.776C47.8451 31.776 54.2151 30.596 60.0791 28.056C60.9591 27.692 61.6991 28.69 60.8351 29.326Z" fill="#FF9900"/>
<path fill-rule="evenodd" clip-rule="evenodd" d="M63.012 26.7849C62.342 25.9679 58.591 26.4219 56.904 26.6029C56.394 26.6929 56.314 26.2399 56.773 25.8769C59.766 23.7899 64.673 24.4249 65.242 25.0599C65.815 25.7859 65.091 30.7779 62.285 33.1369C61.853 33.4999 61.445 33.2269 61.635 32.7739C62.268 31.2309 63.681 27.6929 63.012 26.7849Z" fill="#FF9900"/>
<path fill-rule="evenodd" clip-rule="evenodd" d="M57.02 10.995V8.907C57.024 8.635 57.255 8.363 57.54 8.363H66.695C66.985 8.363 67.224 8.635 67.224 8.907V10.722C67.22 10.995 66.972 11.358 66.534 11.992L61.792 18.8C63.554 18.71 65.415 18.981 67.015 19.889C67.377 20.07 67.475 20.433 67.501 20.706V22.884C67.501 23.156 67.173 23.519 66.828 23.337C64.009 21.885 60.272 21.704 57.155 23.337C56.836 23.519 56.501 23.156 56.501 22.884V20.796C56.501 20.433 56.508 19.889 56.843 19.436L62.338 11.449H57.553C57.258 11.449 57.023 11.268 57.02 10.996V10.995ZM75.13 11.085C73.077 11.085 72.946 13.899 72.946 15.623C72.946 17.347 72.92 21.158 75.106 21.158C77.266 21.158 77.366 18.073 77.366 16.258C77.366 15.078 77.313 13.626 76.952 12.447C76.64 11.448 76.014 11.085 75.13 11.085ZM75.106 8.181C79.242 8.181 81.476 11.721 81.476 16.258C81.476 20.614 79.007 24.062 75.106 24.062C71.051 24.062 68.838 20.523 68.838 16.076C68.838 11.63 71.075 8.181 75.106 8.181ZM52.534 23.79C52.349 23.88 52.014 23.88 51.874 23.79C50.923 23.064 50.276 21.975 50.276 21.975C48.746 23.518 47.665 23.971 45.686 23.971C43.341 23.971 41.516 22.52 41.516 19.616C41.516 17.346 42.742 15.804 44.486 15.078C45.996 14.352 48.11 14.262 49.724 14.08C49.724 14.08 49.857 12.356 49.385 11.72C49.021 11.176 48.395 10.995 47.822 10.995C46.787 10.995 45.789 11.539 45.592 12.628C45.535 12.9 45.307 13.173 45.065 13.173L42.397 12.9C42.193 12.81 41.915 12.628 41.982 12.265C42.605 8.998 45.562 8 48.214 8C49.57 8 51.341 8.363 52.409 9.361C53.765 10.631 53.635 12.356 53.635 14.171V18.527C53.635 19.887 54.177 20.432 54.686 21.158C54.864 21.431 54.904 21.703 54.676 21.884C54.107 22.338 52.534 23.79 52.534 23.79ZM49.724 16.893C49.724 17.983 49.751 18.89 49.204 19.888C48.763 20.705 48.059 21.158 47.276 21.158C46.207 21.158 45.582 20.342 45.582 19.162C45.582 16.712 47.711 16.349 49.724 16.349V16.893ZM16.017 23.79C15.833 23.88 15.494 23.88 15.361 23.79C14.41 23.064 13.763 21.975 13.763 21.975C12.233 23.518 11.151 23.971 9.173 23.971C6.824 23.971 5 22.52 5 19.616C5 17.346 6.226 15.804 7.97 15.078C9.48 14.352 11.593 14.262 13.207 14.08C13.207 14.08 13.341 12.356 12.869 11.72C12.501 11.176 11.878 10.995 11.305 10.995C10.271 10.995 9.273 11.539 9.075 12.628C9.018 12.9 8.791 13.173 8.55 13.173L5.88 12.9C5.676 12.81 5.398 12.628 5.465 12.265C6.088 8.998 9.045 8 11.697 8C13.053 8 14.825 8.363 15.893 9.361C17.249 10.631 17.119 12.356 17.119 14.171V18.527C17.119 19.887 17.661 20.432 18.17 21.158C18.347 21.431 18.388 21.703 18.16 21.884C17.59 22.338 16.017 23.79 16.017 23.79ZM13.207 16.893C13.207 17.983 13.234 18.89 12.685 19.888C12.243 20.705 11.54 21.158 10.756 21.158C9.688 21.158 9.062 20.342 9.062 19.162C9.062 16.712 11.192 16.349 13.204 16.349V16.893H13.207ZM24.16 15.623C24.16 13.989 24.084 11.721 26.086 11.721C28.062 11.721 27.801 14.081 27.801 15.623L27.804 23.246C27.804 23.518 28.024 23.79 28.303 23.79H31.085C31.384 23.79 31.621 23.518 31.621 23.246V15.623C31.621 14.806 31.595 13.626 31.883 12.9C32.17 12.174 32.87 11.72 33.546 11.72C34.354 11.72 34.976 11.993 35.185 12.991C35.315 13.536 35.261 15.078 35.261 15.623V23.246C35.261 23.518 35.481 23.79 35.76 23.79H38.543C38.841 23.79 39.078 23.518 39.078 23.246L39.082 14.171C39.082 12.628 39.262 10.904 38.379 9.724C37.6 8.635 36.326 8.091 35.154 8.091C33.516 8.091 31.983 8.998 31.306 10.813C30.526 8.998 29.435 8.091 27.694 8.091C25.979 8.091 24.703 8.998 24.026 10.813H23.973V8.998C23.973 8.635 23.738 8.454 23.453 8.454H20.856C20.568 8.454 20.336 8.635 20.336 8.998V23.246C20.336 23.518 20.571 23.79 20.856 23.79H23.638C23.926 23.79 24.158 23.518 24.158 23.246L24.16 15.623ZM87.382 23.246C87.382 23.518 87.147 23.79 86.862 23.79H84.08C83.792 23.79 83.56 23.518 83.56 23.246V8.998C83.56 8.635 83.795 8.454 84.08 8.454H86.652C86.952 8.454 87.171 8.726 87.171 8.817V10.995H87.225C88.005 9.089 89.096 8.18 91.022 8.18C92.271 8.18 93.492 8.634 94.272 9.814C95 10.995 95 12.9 95 14.262V23.336C94.97 23.608 94.742 23.79 94.467 23.79H91.675C91.416 23.79 91.209 23.608 91.179 23.336L91.183 14.625C91.183 11.721 90.073 11.721 89.435 11.721C88.691 11.721 88.092 12.265 87.83 12.81C87.442 13.717 87.378 14.534 87.378 15.532L87.382 23.246Z" fill="white"/>
</svg>
