<svg width="16" height="15" viewBox="0 0 16 15" fill="none" xmlns="http://www.w3.org/2000/svg">
<path d="M8 12.9C6.125 12.9 4.4675 11.94 3.5 10.5C3.5225 9 6.5 8.175 8 8.175C9.5 8.175 12.4775 9 12.5 10.5C12.0042 11.2383 11.3344 11.8434 10.5497 12.2619C9.76495 12.6804 8.88935 12.8995 8 12.9ZM8 2.25C8.59674 2.25 9.16903 2.48705 9.59099 2.90901C10.0129 3.33097 10.25 3.90326 10.25 4.5C10.25 5.09674 10.0129 5.66903 9.59099 6.09099C9.16903 6.51295 8.59674 6.75 8 6.75C7.40326 6.75 6.83097 6.51295 6.40901 6.09099C5.98705 5.66903 5.75 5.09674 5.75 4.5C5.75 3.90326 5.98705 3.33097 6.40901 2.90901C6.83097 2.48705 7.40326 2.25 8 2.25ZM8 0C7.01509 0 6.03982 0.193993 5.12987 0.570904C4.21993 0.947814 3.39314 1.50026 2.6967 2.1967C1.29018 3.60322 0.5 5.51088 0.5 7.5C0.5 9.48912 1.29018 11.3968 2.6967 12.8033C3.39314 13.4997 4.21993 14.0522 5.12987 14.4291C6.03982 14.806 7.01509 15 8 15C9.98912 15 11.8968 14.2098 13.3033 12.8033C14.7098 11.3968 15.5 9.48912 15.5 7.5C15.5 3.3525 12.125 0 8 0Z" fill="white"/>
</svg>
